<svg xmlns="http://www.w3.org/2000/svg" xmlns:xlink="http://www.w3.org/1999/xlink" width="97" height="535" viewBox="0 0 97 535"><svg width="89" height="93" viewBox="0 0 89 93" id="briefcase_icon" y="0"><g fill="#FFF"><path d="M86.033 58.2V23.25c0-4.273-3.327-7.75-7.416-7.75H59.333V7.75c0-4.273-3.327-7.75-7.416-7.75h-17.8C30.027 0 26.7 3.477 26.7 7.75v7.75H7.417C3.327 15.5 0 18.977 0 23.25V77.5c0 4.273 3.327 7.75 7.417 7.75h42.795C54.29 89.995 60.182 93 66.75 93 79.019 93 89 82.57 89 69.75a23.88 23.88 0 0 0-2.967-11.55zM29.667 7.75c0-2.564 1.996-4.65 4.45-4.65h17.8c2.453 0 4.45 2.086 4.45 4.65v7.75H53.4V7.75c0-.856-.663-1.55-1.483-1.55h-17.8c-.82 0-1.484.694-1.484 1.55v7.75h-2.966V7.75zM50.433 9.3v6.2H35.6V9.3h14.833zM2.967 26.35v-3.1c0-2.564 1.996-4.65 4.45-4.65h71.2c2.453 0 4.45 2.086 4.45 4.65V40.3c0 4.273-3.327 7.75-7.417 7.75h-.978c-2.465-.986-5.129-1.55-7.922-1.55s-5.457.564-7.922 1.55h-6.911V43.4c0-.856-.663-1.55-1.484-1.55H35.6c-.82 0-1.483.694-1.483 1.55v4.65H10.383c-4.09 0-7.416-3.477-7.416-7.75V26.35zm80.1 21.528v6.118c-1.163-1.315-2.45-2.505-3.873-3.511a10.358 10.358 0 0 0 3.873-2.607zM48.95 44.95v3.1H37.083v-3.1H48.95zm-31.15 6.2v4.65h-4.45v-4.65h4.45zm-10.383 31c-2.454 0-4.45-2.086-4.45-4.65V47.878c1.886 2.017 4.512 3.272 7.416 3.272v6.2c0 .856.663 1.55 1.484 1.55h7.416c.82 0 1.484-.694 1.484-1.55v-6.2h32.689c-5.424 4.244-8.956 10.991-8.956 18.6 0 4.56 1.282 8.806 3.462 12.4H7.417zm78.54-10.85c-.723 9.874-8.275 17.765-17.724 18.52V86.8h-2.966v3.02c-5.355-.428-10.108-3.136-13.35-7.213v-.457h-.336a20.55 20.55 0 0 1-4.04-10.85h2.892v-3.1h-2.89c.723-9.873 8.275-17.765 17.724-18.521V52.7h2.966v-3.021c9.45.756 17 8.648 17.725 18.521h-2.891v3.1h2.89z"></path><path d="M67.855 68.52V55.382H65v13.771c0 .406.15.796.418 1.082l8.564 9.18L76 77.253l-8.145-8.732zM65 40.753h3v3.135h-3zm6 0h3v3.135h-3zm-12 0h3v3.135h-3z"></path></g></svg><svg width="76" height="67" viewBox="0 0 76 67" id="cash_icon" y="93"><g fill="#F02355"><path d="M28.581 44.124l12.457 3.639a1.463 1.463 0 0 1-.08.244c-.333.872-1.015 1.36-2.126 1.53-4.094.626-10.886.228-10.95.228-1.046-.06-1.95.704-2.014 1.713-.064 1.009.73 1.88 1.777 1.941.301.015 7.267.428 11.79-.275 4.49-.688 5.776-4.495 5.538-6.895a1.856 1.856 0 0 0-1.349-1.59l-13.948-4.066c-6.887-2.003-14.44 1.697-14.757 1.85-.032.015-.08.03-.112.06L.923 50.592a1.8 1.8 0 0 0-.65 2.522c.364.566.983.887 1.634.887.333 0 .666-.092.984-.26l13.82-8.026c.604-.306 6.681-3.103 11.87-1.59z"></path><path d="M75.766 40.72c-1.092-2.012-4.494-5.223-9.653-2.923-4.874 2.189-15.176 7.189-15.287 7.237a1.914 1.914 0 0 0-.886 2.556c.459.958 1.598 1.358 2.532.895.11-.048 10.35-5.033 15.176-7.19 1.376-.622 2.532-.622 3.529 0 .031.017.047.033.079.049l-25.81 19.09A8.56 8.56 0 0 1 39.051 62l-23.025-3.707a1.94 1.94 0 0 0-1.52.416l-5.823 4.904A1.919 1.919 0 0 0 9.903 67c.427 0 .854-.144 1.218-.447l5.16-4.346 22.186 3.579c3.228.527 6.599-.304 9.241-2.253l27.536-20.352a1.941 1.941 0 0 0 .522-2.46zM41 39c2.94 0 5.69-1.148 7.781-3.224 4.292-4.293 4.292-11.26 0-15.552A10.938 10.938 0 0 0 41 17c-2.94 0-5.69 1.148-7.781 3.224-4.292 4.293-4.292 11.26 0 15.552C35.309 37.852 38.06 39 41 39zm-5.109-16.103A7.169 7.169 0 0 1 41 20.774a7.17 7.17 0 0 1 5.109 2.123c2.814 2.815 2.814 7.407 0 10.222A7.169 7.169 0 0 1 41 35.242a7.169 7.169 0 0 1-5.109-2.123c-2.814-2.815-2.814-7.407 0-10.222zM53.5 17a8.449 8.449 0 0 0 6.012-2.49c3.317-3.317 3.317-8.703 0-12.02A8.449 8.449 0 0 0 53.5 0a8.449 8.449 0 0 0-6.012 2.49c-3.317 3.317-3.317 8.703 0 12.02A8.411 8.411 0 0 0 53.5 17zM50.136 5.137a4.75 4.75 0 0 1 3.38-1.4 4.75 4.75 0 0 1 3.38 1.4 4.781 4.781 0 0 1 0 6.741 4.75 4.75 0 0 1-3.38 1.401 4.75 4.75 0 0 1-3.38-1.4c-1.854-1.869-1.854-4.89 0-6.742z"></path></g></svg><svg width="91" height="64" viewBox="0 0 91 64" id="gamepad_icon" y="160"><g fill="#F02355"><path d="M31.797 31.262c-5.33 0-9.683 4.335-9.683 9.683a9.682 9.682 0 0 0 9.683 9.683c5.33 0 9.683-4.334 9.683-9.683 0-5.348-4.353-9.683-9.683-9.683zm0 14.83a5.168 5.168 0 0 1-5.164-5.165 5.156 5.156 0 0 1 5.164-5.164 5.168 5.168 0 0 1 5.164 5.164 5.168 5.168 0 0 1-5.164 5.164zm36.833-5.165c0-5.33-4.335-9.683-9.684-9.683-5.33 0-9.683 4.334-9.683 9.683a9.682 9.682 0 0 0 9.683 9.683c5.35 0 9.683-4.353 9.683-9.683zm-9.684 5.164a5.168 5.168 0 0 1-5.164-5.164 5.156 5.156 0 0 1 5.164-5.164 5.168 5.168 0 0 1 5.165 5.164 5.156 5.156 0 0 1-5.165 5.164z"></path><path d="M84.436 16.895C82.886 7.673 75.269.848 65.88.277l-.387-.074a2.68 2.68 0 0 0-.387-.037H26.098c-9.83 0-18.149 7.027-19.772 16.673L.37 48.765a12.465 12.465 0 0 0-.277 2.601C.092 58.338 5.754 64 12.726 64c4.205 0 8.134-2.084 10.44-5.515l2.877-3.984a2.252 2.252 0 0 0-.517-3.153 2.252 2.252 0 0 0-3.154.516l-2.914 4.04a8.119 8.119 0 0 1-6.732 3.596c-4.482 0-8.115-3.652-8.115-8.116 0-.553.055-1.125.184-1.733l5.958-32c1.254-7.507 7.71-12.948 15.327-12.948h38.842l.314.056c.092.018.166.018.258.036 7.193.388 13.28 5.81 14.478 12.893l5.976 32a8.63 8.63 0 0 1 .166 1.678c0 4.482-3.652 8.115-8.115 8.115-2.711 0-5.22-1.346-6.787-3.652l-3.099-4.279a2.268 2.268 0 0 0-3.154-.516 2.268 2.268 0 0 0-.516 3.154l3.043 4.224a12.638 12.638 0 0 0 10.476 5.57c6.972 0 12.634-5.663 12.634-12.634 0-.867-.092-1.753-.258-2.564l-5.902-31.89z"></path><circle cx="57.084" cy="18.407" r="3.062"></circle><circle cx="69.607" cy="18.407" r="3.062"></circle><path d="M27.61 9.333a2.267 2.267 0 0 0-2.268 2.268v4.076h-4.076a2.267 2.267 0 0 0-2.269 2.269 2.267 2.267 0 0 0 2.269 2.268h4.076v4.076a2.267 2.267 0 0 0 2.268 2.27 2.267 2.267 0 0 0 2.269-2.27v-4.076h4.076a2.267 2.267 0 0 0 2.269-2.268 2.267 2.267 0 0 0-2.269-2.269h-4.076v-4.076a2.267 2.267 0 0 0-2.269-2.268z"></path><circle cx="63.336" cy="24.659" r="3.062"></circle><circle cx="63.336" cy="12.136" r="3.062"></circle></g></svg><svg width="84" height="64" viewBox="0 0 84 64" id="gapcoin_icon" y="224"><g fill="none" fill-rule="evenodd" transform="translate(3)"><circle cx="49" cy="32" r="30" stroke="#F02355" stroke-width="4"></circle><path stroke="#F02355" stroke-dasharray="4,8" stroke-linecap="round" stroke-linejoin="round" stroke-width="5" d="M15.07 13.471C6.463 15.281 0 22.918 0 32.064c0 9.003 6.262 16.544 14.668 18.504 1.392.325 2.842.496 4.332.496"></path><text fill="#F02355" font-family="GillSans-SemiBold, Gill Sans" font-size="32" font-weight="500" letter-spacing="2.071"><tspan x="36" y="41">G</tspan></text></g></svg><svg width="97" height="93" viewBox="0 0 97 93" id="growth_icon" y="288"><g fill="#FFF"><path d="M95.117 63.18a5.283 5.283 0 0 0-4.306-1.16l-30.994 5.377V56.363c2.39-.145 6.788-.833 9.823-3.857 4.251-4.237 3.918-11.195 3.9-11.488a1.61 1.61 0 0 0-1.524-1.52c-.293-.026-7.273-.348-11.52 3.888a10.92 10.92 0 0 0-.68.751v-5.495c2.39-.145 6.79-.834 9.824-3.858 4.251-4.237 3.918-11.194 3.9-11.488a1.61 1.61 0 0 0-1.524-1.52c-.293-.023-7.273-.348-11.52 3.89a10.92 10.92 0 0 0-.68.751V21.63l9.073-8.86a7.354 7.354 0 0 0 2.244-5.297 7.355 7.355 0 0 0-2.244-5.3h-.001C65.945-.703 61.17-.723 58.2 2.104c-2.973-2.83-7.745-2.807-10.69.068a7.355 7.355 0 0 0-2.243 5.299c0 2.002.797 3.885 2.245 5.299l9.071 8.857v4.788c-.213-.258-.436-.51-.679-.752-4.247-4.24-11.227-3.912-11.52-3.89a1.61 1.61 0 0 0-1.525 1.52c-.017.294-.35 7.252 3.901 11.488 3.035 3.028 7.434 3.715 9.823 3.858v5.496a10.215 10.215 0 0 0-.679-.752c-4.248-4.236-11.224-3.912-11.52-3.888a1.61 1.61 0 0 0-1.525 1.52c-.017.294-.35 7.252 3.901 11.488 3.035 3.028 7.434 3.714 9.823 3.858v9.058l-6.94-6.92a1.617 1.617 0 0 0-1.143-.471H32.333c0-.892-.722-1.612-1.616-1.612H0v3.224h22.633v22.57H0v3.223h30.717c.894 0 1.616-.72 1.616-1.612h4.469l17.284 8.619a5.286 5.286 0 0 0 5.025-.16l35.268-20.517A5.28 5.28 0 0 0 97 67.214a5.26 5.26 0 0 0-1.883-4.035zM62.782 45.663c2.179-2.173 5.535-2.757 7.493-2.907-.147 1.948-.73 5.282-2.921 7.468-2.18 2.173-5.536 2.756-7.492 2.906.147-1.947.73-5.281 2.92-7.467zm0-17.72c2.179-2.175 5.535-2.758 7.493-2.908-.147 1.947-.73 5.28-2.921 7.467-2.178 2.171-5.53 2.755-7.487 2.906.152-1.952.737-5.294 2.915-7.465zm-13.736 4.559c-2.18-2.173-2.766-5.52-2.916-7.472 1.953.146 5.296.727 7.488 2.913 2.178 2.171 2.763 5.513 2.915 7.465-1.958-.151-5.309-.735-7.487-2.906zm0 17.722c-2.18-2.173-2.766-5.522-2.916-7.472 1.953.146 5.296.725 7.488 2.911 2.178 2.173 2.763 5.515 2.915 7.467-1.958-.151-5.309-.735-7.487-2.906zM29.1 82.21h-3.233V59.64H29.1v22.57zm20.674-71.743A4.164 4.164 0 0 1 48.5 7.472c0-1.13.453-2.194 1.272-2.995a4.449 4.449 0 0 1 3.119-1.26c1.127 0 2.257.421 3.117 1.26l1.062 1.038a1.616 1.616 0 0 0 2.26 0l1.062-1.038c1.719-1.677 4.514-1.677 6.232-.002a4.157 4.157 0 0 1 .004 5.99l-8.428 8.23-8.426-8.228zM92.75 68.978L57.482 89.495a2.048 2.048 0 0 1-1.95.062l-17.624-8.788a1.616 1.616 0 0 0-.725-.17h-4.85V61.252h15.498l12.737 12.702a2.96 2.96 0 0 1 .865 2.084 2.954 2.954 0 0 1-2.955 2.947c-.778 0-1.54-.314-2.09-.862l-8.362-8.338-2.286 2.28 8.362 8.337a6.156 6.156 0 0 0 4.376 1.807c3.411 0 6.189-2.77 6.189-6.17a6.124 6.124 0 0 0-1.813-4.365l-1.31-1.306 29.819-5.171a2.03 2.03 0 0 1 1.671.45 2.038 2.038 0 0 1-.284 3.33z"></path><path d="M34.125 5h-3.25A4.881 4.881 0 0 1 26 9.875v3.25A4.881 4.881 0 0 1 30.875 18h3.25A4.881 4.881 0 0 1 39 13.125v-3.25A4.881 4.881 0 0 1 34.125 5zM32.5 13.175a8.106 8.106 0 0 0-1.675-1.675A8.106 8.106 0 0 0 32.5 9.825a8.106 8.106 0 0 0 1.675 1.675 8.106 8.106 0 0 0-1.675 1.675zM24.125 19h-3.25A4.881 4.881 0 0 1 16 23.875v3.25A4.881 4.881 0 0 1 20.875 32h3.25A4.881 4.881 0 0 1 29 27.125v-3.25A4.881 4.881 0 0 1 24.125 19zM22.5 27.175a8.106 8.106 0 0 0-1.675-1.675 8.106 8.106 0 0 0 1.675-1.675 8.106 8.106 0 0 0 1.675 1.675 8.106 8.106 0 0 0-1.675 1.675zM86.125 11h-3.25A4.881 4.881 0 0 1 78 15.875v3.25A4.881 4.881 0 0 1 82.875 24h3.25A4.881 4.881 0 0 1 91 19.125v-3.25A4.881 4.881 0 0 1 86.125 11zM84.5 19.175a8.106 8.106 0 0 0-1.675-1.675 8.106 8.106 0 0 0 1.675-1.675 8.106 8.106 0 0 0 1.675 1.675 8.106 8.106 0 0 0-1.675 1.675zM29 50h3v3h-3zm-6 0h3v3h-3zm-7 0h3v3h-3z"></path></g></svg><svg width="85" height="85" viewBox="0 0 85 85" id="money_icon" y="381"><g fill="#FFF"><path d="M14.123 75.378a1.673 1.673 0 0 0-1.173-.485c-.437 0-.865.177-1.174.485a1.668 1.668 0 0 0-.486 1.172c0 .436.177.863.486 1.171.309.308.737.486 1.174.486a1.661 1.661 0 0 0 1.66-1.657 1.67 1.67 0 0 0-.487-1.172zm63.825-45.067a1.67 1.67 0 0 0-1.173-.485c-.437 0-.865.177-1.174.485a1.669 1.669 0 0 0-.487 1.172c0 .436.178.863.487 1.171.309.308.737.486 1.174.486a1.662 1.662 0 0 0 1.662-1.657c0-.436-.178-.863-.489-1.172z"></path><path d="M84.513.485A1.663 1.663 0 0 0 83.339 0l-40.84.002a1.66 1.66 0 0 0-1.66 1.657v4.738l-15.736 4.209a1.656 1.656 0 0 0-1.174 2.029l8.156 30.378-7.055 7.042a4.981 4.981 0 0 0-4.112-2.17H4.981a4.981 4.981 0 0 0-4.98 4.971v27.008c0 2.74 2.234 4.97 4.98 4.97H20.92a4.987 4.987 0 0 0 4.833-3.774l1.974 1.718a8.374 8.374 0 0 0 5.498 2.056H83.34c.917 0 1.66-.741 1.66-1.656V1.657c0-.44-.175-.861-.486-1.172zM22.578 79.864a1.66 1.66 0 0 1-1.66 1.657H4.981a1.66 1.66 0 0 1-1.66-1.657V52.857a1.66 1.66 0 0 1 1.66-1.657h6.309v19.087c0 .915.743 1.656 1.66 1.656.917 0 1.66-.741 1.66-1.656V51.2h6.308c.916 0 1.66.743 1.66 1.657v27.007zm4.988-66.486l13.274-3.55v6.14l-1.113.297a1.66 1.66 0 0 0-1.174 2.03 4.465 4.465 0 0 1-3.16 5.464 1.66 1.66 0 0 0-1.174 2.032l6.471 23.916h-3.332l-1.717-6.705a1.653 1.653 0 0 0-.278-.58l-7.797-29.044zM40.84 23.566v13.981l-3.028-11.19a7.772 7.772 0 0 0 3.028-2.79zM64.69 81.52H33.224a5.05 5.05 0 0 1-3.316-1.24l-4.01-3.49V53.875l7.249-7.234 1.314 5.134a1.66 1.66 0 0 0 1.609 1.246l32.639.002a2.325 2.325 0 0 1 2.324 2.32 2.324 2.324 0 0 1-2.324 2.32H51.984c-.916 0-1.66.741-1.66 1.656a1.66 1.66 0 0 0 1.66 1.657h21.921a2.325 2.325 0 0 1 2.324 2.32c0 1.28-1.042 2.32-2.324 2.32h-21.92c-.917 0-1.66.742-1.66 1.657s.743 1.657 1.66 1.657h18.368a2.325 2.325 0 0 1 2.324 2.32 2.324 2.324 0 0 1-2.324 2.319H51.984c-.916 0-1.66.742-1.66 1.657s.744 1.657 1.66 1.657H64.69a2.325 2.325 0 0 1 2.324 2.32 2.325 2.325 0 0 1-2.324 2.318zm16.989 0H69.832a5.59 5.59 0 0 0 .503-2.32 5.59 5.59 0 0 0-.503-2.319h.52c3.113 0 5.645-2.527 5.645-5.633 0-.906-.216-1.762-.599-2.522 2.39-.655 4.151-2.841 4.151-5.431a5.596 5.596 0 0 0-1.114-3.356v-21c0-.915-.743-1.657-1.66-1.657-.917 0-1.66.742-1.66 1.657v18.854a5.656 5.656 0 0 0-1.21-.132h-.055a5.59 5.59 0 0 0 .503-2.32c0-3.106-2.532-5.633-5.644-5.633H66.04c2.834-1.212 4.824-4.024 4.824-7.29 0-4.373-3.564-7.93-7.945-7.93-4.38 0-7.945 3.557-7.945 7.93 0 3.266 1.99 6.078 4.824 7.29h-9.075V18.203a7.807 7.807 0 0 0 5.952-5.94h12.488a7.807 7.807 0 0 0 5.952 5.94v5.152c0 .915.743 1.657 1.66 1.657.917 0 1.66-.742 1.66-1.657v-6.63c0-.916-.743-1.658-1.66-1.658a4.47 4.47 0 0 1-4.47-4.461c0-.915-.743-1.657-1.66-1.657H55.193c-.917 0-1.66.742-1.66 1.657a4.47 4.47 0 0 1-4.47 4.461c-.917 0-1.66.742-1.66 1.657v32.984H44.16V3.316l37.519-.002V81.52zm-18.76-34.487a4.625 4.625 0 0 1-4.624-4.616 4.626 4.626 0 0 1 9.249 0 4.626 4.626 0 0 1-4.625 4.616z"></path></g></svg><svg width="75" height="69" viewBox="0 0 75 69" id="percentage_icon" y="466"><g fill="#F02355"><path d="M64.793 10.015C58.31 3.57 49.686.017 40.523.017c-9.333 0-18.065 3.66-24.58 10.305a1.846 1.846 0 0 0 .031 2.602c.724.705 1.894.69 2.618-.03 5.822-5.926 13.599-9.187 21.93-9.187 16.895-.015 30.632 13.642 30.632 30.438 0 16.797-13.737 30.454-30.632 30.454-16.894 0-30.631-13.657-30.631-30.454v-.382l3.05 3.031a1.86 1.86 0 0 0 1.308.536c.478 0 .94-.184 1.31-.536a1.831 1.831 0 0 0 0-2.603l-6.192-6.17a1.857 1.857 0 0 0-2.618 0l-6.206 6.17a1.831 1.831 0 0 0 0 2.603c.724.72 1.894.72 2.618 0l3.05-3.031v.382c0 9.11 3.572 17.685 10.056 24.13 6.483 6.447 15.107 9.999 24.27 9.999 9.164 0 17.788-3.552 24.272-9.998 6.483-6.446 10.04-15.02 10.04-24.13s-3.572-17.685-10.056-24.13z"></path><path d="M50.348 21.728l-22.7 22.553a1.831 1.831 0 0 0 0 2.603 1.86 1.86 0 0 0 1.309.536c.477 0 .939-.184 1.309-.536l22.7-22.568a1.831 1.831 0 0 0 0-2.603 1.872 1.872 0 0 0-2.618.015zm-5.945 15.189a6.562 6.562 0 0 0 0 9.294 6.601 6.601 0 0 0 4.682 1.929 6.601 6.601 0 0 0 4.682-1.93 6.562 6.562 0 0 0 0-9.293 6.601 6.601 0 0 0-4.682-1.93 6.628 6.628 0 0 0-4.682 1.93zm6.746 6.706a2.883 2.883 0 0 1-2.064.842c-.785 0-1.51-.306-2.064-.842a2.89 2.89 0 0 1 0-4.103 2.883 2.883 0 0 1 2.064-.842c.785 0 1.51.306 2.064.842a2.89 2.89 0 0 1 0 4.103zM32.021 20.09a6.601 6.601 0 0 0-4.681 1.93 6.525 6.525 0 0 0-1.94 4.654c0 1.76.692 3.414 1.94 4.654a6.601 6.601 0 0 0 4.681 1.93 6.601 6.601 0 0 0 4.682-1.93 6.525 6.525 0 0 0 1.94-4.654 6.526 6.526 0 0 0-1.94-4.655 6.628 6.628 0 0 0-4.682-1.929zm2.064 8.635a2.883 2.883 0 0 1-2.064.843 2.946 2.946 0 0 1-2.063-.843 2.85 2.85 0 0 1-.847-2.051c0-.781.308-1.5.847-2.052a2.883 2.883 0 0 1 2.063-.842c.786 0 1.51.306 2.064.842a2.85 2.85 0 0 1 .847 2.052c0 .765-.293 1.5-.847 2.051z"></path></g></svg></svg>