<svg xmlns="http://www.w3.org/2000/svg" xmlns:xlink="http://www.w3.org/1999/xlink" width="91" height="264" viewBox="0 0 91 264"><svg width="76" height="67" viewBox="0 0 76 67" id="cash_icon" y="0"><g fill="#F02355"><path d="M28.581 44.124l12.457 3.639a1.463 1.463 0 0 1-.08.244c-.333.872-1.015 1.36-2.126 1.53-4.094.626-10.886.228-10.95.228-1.046-.06-1.95.704-2.014 1.713-.064 1.009.73 1.88 1.777 1.941.301.015 7.267.428 11.79-.275 4.49-.688 5.776-4.495 5.538-6.895a1.856 1.856 0 0 0-1.349-1.59l-13.948-4.066c-6.887-2.003-14.44 1.697-14.757 1.85-.032.015-.08.03-.112.06L.923 50.592a1.8 1.8 0 0 0-.65 2.522c.364.566.983.887 1.634.887.333 0 .666-.092.984-.26l13.82-8.026c.604-.306 6.681-3.103 11.87-1.59z"></path><path d="M75.766 40.72c-1.092-2.012-4.494-5.223-9.653-2.923-4.874 2.189-15.176 7.189-15.287 7.237a1.914 1.914 0 0 0-.886 2.556c.459.958 1.598 1.358 2.532.895.11-.048 10.35-5.033 15.176-7.19 1.376-.622 2.532-.622 3.529 0 .031.017.047.033.079.049l-25.81 19.09A8.56 8.56 0 0 1 39.051 62l-23.025-3.707a1.94 1.94 0 0 0-1.52.416l-5.823 4.904A1.919 1.919 0 0 0 9.903 67c.427 0 .854-.144 1.218-.447l5.16-4.346 22.186 3.579c3.228.527 6.599-.304 9.241-2.253l27.536-20.352a1.941 1.941 0 0 0 .522-2.46zM41 39c2.94 0 5.69-1.148 7.781-3.224 4.292-4.293 4.292-11.26 0-15.552A10.938 10.938 0 0 0 41 17c-2.94 0-5.69 1.148-7.781 3.224-4.292 4.293-4.292 11.26 0 15.552C35.309 37.852 38.06 39 41 39zm-5.109-16.103A7.169 7.169 0 0 1 41 20.774a7.17 7.17 0 0 1 5.109 2.123c2.814 2.815 2.814 7.407 0 10.222A7.169 7.169 0 0 1 41 35.242a7.169 7.169 0 0 1-5.109-2.123c-2.814-2.815-2.814-7.407 0-10.222zM53.5 17a8.449 8.449 0 0 0 6.012-2.49c3.317-3.317 3.317-8.703 0-12.02A8.449 8.449 0 0 0 53.5 0a8.449 8.449 0 0 0-6.012 2.49c-3.317 3.317-3.317 8.703 0 12.02A8.411 8.411 0 0 0 53.5 17zM50.136 5.137a4.75 4.75 0 0 1 3.38-1.4 4.75 4.75 0 0 1 3.38 1.4 4.781 4.781 0 0 1 0 6.741 4.75 4.75 0 0 1-3.38 1.401 4.75 4.75 0 0 1-3.38-1.4c-1.854-1.869-1.854-4.89 0-6.742z"></path></g></svg><svg width="91" height="64" viewBox="0 0 91 64" id="gamepad_icon" y="67"><g fill="#F02355"><path d="M31.797 31.262c-5.33 0-9.683 4.335-9.683 9.683a9.682 9.682 0 0 0 9.683 9.683c5.33 0 9.683-4.334 9.683-9.683 0-5.348-4.353-9.683-9.683-9.683zm0 14.83a5.168 5.168 0 0 1-5.164-5.165 5.156 5.156 0 0 1 5.164-5.164 5.168 5.168 0 0 1 5.164 5.164 5.168 5.168 0 0 1-5.164 5.164zm36.833-5.165c0-5.33-4.335-9.683-9.684-9.683-5.33 0-9.683 4.334-9.683 9.683a9.682 9.682 0 0 0 9.683 9.683c5.35 0 9.683-4.353 9.683-9.683zm-9.684 5.164a5.168 5.168 0 0 1-5.164-5.164 5.156 5.156 0 0 1 5.164-5.164 5.168 5.168 0 0 1 5.165 5.164 5.156 5.156 0 0 1-5.165 5.164z"></path><path d="M84.436 16.895C82.886 7.673 75.269.848 65.88.277l-.387-.074a2.68 2.68 0 0 0-.387-.037H26.098c-9.83 0-18.149 7.027-19.772 16.673L.37 48.765a12.465 12.465 0 0 0-.277 2.601C.092 58.338 5.754 64 12.726 64c4.205 0 8.134-2.084 10.44-5.515l2.877-3.984a2.252 2.252 0 0 0-.517-3.153 2.252 2.252 0 0 0-3.154.516l-2.914 4.04a8.119 8.119 0 0 1-6.732 3.596c-4.482 0-8.115-3.652-8.115-8.116 0-.553.055-1.125.184-1.733l5.958-32c1.254-7.507 7.71-12.948 15.327-12.948h38.842l.314.056c.092.018.166.018.258.036 7.193.388 13.28 5.81 14.478 12.893l5.976 32a8.63 8.63 0 0 1 .166 1.678c0 4.482-3.652 8.115-8.115 8.115-2.711 0-5.22-1.346-6.787-3.652l-3.099-4.279a2.268 2.268 0 0 0-3.154-.516 2.268 2.268 0 0 0-.516 3.154l3.043 4.224a12.638 12.638 0 0 0 10.476 5.57c6.972 0 12.634-5.663 12.634-12.634 0-.867-.092-1.753-.258-2.564l-5.902-31.89z"></path><circle cx="57.084" cy="18.407" r="3.062"></circle><circle cx="69.607" cy="18.407" r="3.062"></circle><path d="M27.61 9.333a2.267 2.267 0 0 0-2.268 2.268v4.076h-4.076a2.267 2.267 0 0 0-2.269 2.269 2.267 2.267 0 0 0 2.269 2.268h4.076v4.076a2.267 2.267 0 0 0 2.268 2.27 2.267 2.267 0 0 0 2.269-2.27v-4.076h4.076a2.267 2.267 0 0 0 2.269-2.268 2.267 2.267 0 0 0-2.269-2.269h-4.076v-4.076a2.267 2.267 0 0 0-2.269-2.268z"></path><circle cx="63.336" cy="24.659" r="3.062"></circle><circle cx="63.336" cy="12.136" r="3.062"></circle></g></svg><svg width="84" height="64" viewBox="0 0 84 64" id="gapcoin_icon" y="131"><g fill="none" fill-rule="evenodd" transform="translate(3)"><circle cx="49" cy="32" r="30" stroke="#F02355" stroke-width="4"></circle><path stroke="#F02355" stroke-dasharray="4,8" stroke-linecap="round" stroke-linejoin="round" stroke-width="5" d="M15.07 13.471C6.463 15.281 0 22.918 0 32.064c0 9.003 6.262 16.544 14.668 18.504 1.392.325 2.842.496 4.332.496"></path><text fill="#F02355" font-family="GillSans-SemiBold, Gill Sans" font-size="32" font-weight="500" letter-spacing="2.071"><tspan x="36" y="41">G</tspan></text></g></svg><svg width="75" height="69" viewBox="0 0 75 69" id="percentage_icon" y="195"><g fill="#F02355"><path d="M64.793 10.015C58.31 3.57 49.686.017 40.523.017c-9.333 0-18.065 3.66-24.58 10.305a1.846 1.846 0 0 0 .031 2.602c.724.705 1.894.69 2.618-.03 5.822-5.926 13.599-9.187 21.93-9.187 16.895-.015 30.632 13.642 30.632 30.438 0 16.797-13.737 30.454-30.632 30.454-16.894 0-30.631-13.657-30.631-30.454v-.382l3.05 3.031a1.86 1.86 0 0 0 1.308.536c.478 0 .94-.184 1.31-.536a1.831 1.831 0 0 0 0-2.603l-6.192-6.17a1.857 1.857 0 0 0-2.618 0l-6.206 6.17a1.831 1.831 0 0 0 0 2.603c.724.72 1.894.72 2.618 0l3.05-3.031v.382c0 9.11 3.572 17.685 10.056 24.13 6.483 6.447 15.107 9.999 24.27 9.999 9.164 0 17.788-3.552 24.272-9.998 6.483-6.446 10.04-15.02 10.04-24.13s-3.572-17.685-10.056-24.13z"></path><path d="M50.348 21.728l-22.7 22.553a1.831 1.831 0 0 0 0 2.603 1.86 1.86 0 0 0 1.309.536c.477 0 .939-.184 1.309-.536l22.7-22.568a1.831 1.831 0 0 0 0-2.603 1.872 1.872 0 0 0-2.618.015zm-5.945 15.189a6.562 6.562 0 0 0 0 9.294 6.601 6.601 0 0 0 4.682 1.929 6.601 6.601 0 0 0 4.682-1.93 6.562 6.562 0 0 0 0-9.293 6.601 6.601 0 0 0-4.682-1.93 6.628 6.628 0 0 0-4.682 1.93zm6.746 6.706a2.883 2.883 0 0 1-2.064.842c-.785 0-1.51-.306-2.064-.842a2.89 2.89 0 0 1 0-4.103 2.883 2.883 0 0 1 2.064-.842c.785 0 1.51.306 2.064.842a2.89 2.89 0 0 1 0 4.103zM32.021 20.09a6.601 6.601 0 0 0-4.681 1.93 6.525 6.525 0 0 0-1.94 4.654c0 1.76.692 3.414 1.94 4.654a6.601 6.601 0 0 0 4.681 1.93 6.601 6.601 0 0 0 4.682-1.93 6.525 6.525 0 0 0 1.94-4.654 6.526 6.526 0 0 0-1.94-4.655 6.628 6.628 0 0 0-4.682-1.929zm2.064 8.635a2.883 2.883 0 0 1-2.064.843 2.946 2.946 0 0 1-2.063-.843 2.85 2.85 0 0 1-.847-2.051c0-.781.308-1.5.847-2.052a2.883 2.883 0 0 1 2.063-.842c.786 0 1.51.306 2.064.842a2.85 2.85 0 0 1 .847 2.052c0 .765-.293 1.5-.847 2.051z"></path></g></svg></svg>